<?xml version="1.0" encoding="utf-8"?>
<!-- Generator: Adobe Illustrator 13.0.0, SVG Export Plug-In  -->
<!DOCTYPE svg PUBLIC "-//W3C//DTD SVG 1.1//EN" "http://www.w3.org/Graphics/SVG/1.1/DTD/svg11.dtd" [
	<!ENTITY ns_flows "http://ns.adobe.com/Flows/1.0/">
]>
<svg version="1.1"
	 xmlns="http://www.w3.org/2000/svg" xmlns:xlink="http://www.w3.org/1999/xlink" xmlns:a="http://ns.adobe.com/AdobeSVGViewerExtensions/3.0/"
	 x="0px" y="0px" width="371px" height="50px" viewBox="0 0 371 50" enable-background="new 0 0 371 50" xml:space="preserve">
<defs>
</defs>
<g>
	<linearGradient id="SVGID_1_" gradientUnits="userSpaceOnUse" x1="185.6006" y1="50.186" x2="185.6006" y2="4.882812e-04">
		<stop  offset="0" style="stop-color:#4784C0"/>
		<stop  offset="0.1719" style="stop-color:#417CC5"/>
		<stop  offset="0.5149" style="stop-color:#3A73CA"/>
		<stop  offset="1" style="stop-color:#3870CC"/>
	</linearGradient>
	<path fill="url(#SVGID_1_)" d="M371.202,40.186c0,5.5-4.5,10-10,10H10c-5.5,0-10-4.5-10-10V10C0,4.5,4.5,0,10,0h351.202
		c5.5,0,10,4.5,10,10V40.186z"/>
</g>
<path fill="#FFFFFF" d="M85.634,13.956c4.521,0,6.741,2.327,6.741,2.327l-1.524,1.953c0,0-2.033-1.819-5.163-1.819
	c-3.771,0-6.794,3.022-6.794,7.222c0,4.387,3.022,7.329,6.848,7.329c3.37,0,5.376-2.354,5.376-2.354v-1.899
	c0-0.375-0.214-0.589-0.589-0.589h-1.15v-2.3h2.488c1.204,0,1.712,0.508,1.712,1.712v7.623h-2.354v-1.177
	c0-0.401,0.027-0.803,0.027-0.803h-0.054c0,0-2.113,2.301-5.885,2.301c-5.029,0-9.202-3.959-9.202-9.844
	C76.112,18.209,80.231,13.956,85.634,13.956z"/>
<path fill="#FFFFFF" d="M102.863,19.306c3.798,0,5.831,2.835,5.831,6.339c0,0.348-0.08,1.07-0.08,1.07h-9.871
	c0.161,2.889,2.247,4.521,4.654,4.521c2.327,0,3.959-1.578,3.959-1.578l1.124,1.846c0,0-2.006,1.979-5.216,1.979
	c-4.28,0-7.195-3.076-7.195-7.089C96.069,22.087,99.011,19.306,102.863,19.306z M106.02,24.816c-0.081-2.247-1.498-3.45-3.183-3.45
	c-1.979,0-3.584,1.203-3.986,3.45H106.02z"/>
<path fill="#FFFFFF" d="M112.254,21.713h-1.766v-2.086h1.819v-3.718h2.541v3.718h3.237v2.086h-3.237v6.205
	c0,2.702,1.873,3.05,2.862,3.05c0.375,0,0.615-0.054,0.615-0.054v2.301c0,0-0.348,0.054-0.91,0.054
	c-1.712,0-5.162-0.535-5.162-5.056V21.713z"/>
<path fill="#FFFFFF" d="M128.974,28.775c0,0,1.926,2.273,4.734,2.273c1.766,0,3.236-1.069,3.236-2.809
	c0-3.959-9.121-3.344-9.121-9.228c0-2.835,2.488-5.056,6.045-5.056c2.006,0,5.376,0.91,5.376,3.478v1.551h-2.461v-0.883
	c0-0.99-1.418-1.712-2.916-1.712c-2.033,0-3.317,1.124-3.317,2.541c0,3.825,9.094,2.97,9.094,9.175c0,2.889-2.247,5.377-5.992,5.377
	c-4.012,0-6.259-2.809-6.259-2.809L128.974,28.775z"/>
<path fill="#FFFFFF" d="M143.125,21.713h-1.766v-2.086h1.819v-3.718h2.541v3.718h3.237v2.086h-3.237v6.205
	c0,2.702,1.873,3.05,2.862,3.05c0.375,0,0.615-0.054,0.615-0.054v2.301c0,0-0.348,0.054-0.91,0.054
	c-1.712,0-5.162-0.535-5.162-5.056V21.713z"/>
<path fill="#FFFFFF" d="M159.176,24.736h0.589v-0.134c0-2.381-0.883-3.236-2.996-3.236c-0.642,0-2.22,0.16-2.22,1.043v0.775h-2.434
	v-1.337c0-2.22,3.37-2.542,4.681-2.542c4.387,0,5.564,2.3,5.564,5.296v5.751c0,0.401,0.214,0.589,0.588,0.589h1.097v2.22h-2.434
	c-1.204,0-1.686-0.589-1.686-1.552c0-0.454,0.054-0.802,0.054-0.802h-0.054c0,0-1.07,2.675-4.307,2.675
	c-2.327,0-4.601-1.418-4.601-4.119C151.018,25.003,156.902,24.736,159.176,24.736z M156.18,31.396c2.193,0,3.611-2.3,3.611-4.307
	v-0.454h-0.669c-1.952,0-5.483,0.106-5.483,2.595C153.639,30.327,154.468,31.396,156.18,31.396z"/>
<path fill="#FFFFFF" d="M166.854,22.435c0-0.401-0.214-0.588-0.588-0.588h-1.097v-2.22h2.461c1.177,0,1.738,0.481,1.738,1.578v0.856
	c0,0.535-0.054,0.937-0.054,0.937h0.054c0.642-1.979,2.193-3.531,4.279-3.531c0.349,0,0.696,0.054,0.696,0.054v2.567
	c0,0-0.348-0.08-0.776-0.08c-1.658,0-3.183,1.177-3.798,3.184c-0.241,0.775-0.321,1.604-0.321,2.434v5.537h-2.595V22.435z"/>
<path fill="#FFFFFF" d="M177.315,21.713h-1.766v-2.086h1.819v-3.718h2.541v3.718h3.236v2.086h-3.236v6.205
	c0,2.702,1.872,3.05,2.861,3.05c0.375,0,0.615-0.054,0.615-0.054v2.301c0,0-0.348,0.054-0.909,0.054
	c-1.712,0-5.162-0.535-5.162-5.056V21.713z"/>
<path fill="#FFFFFF" d="M191.868,19.306c3.799,0,5.831,2.835,5.831,6.339c0,0.348-0.08,1.07-0.08,1.07h-9.87
	c0.16,2.889,2.247,4.521,4.654,4.521c2.327,0,3.959-1.578,3.959-1.578l1.123,1.846c0,0-2.006,1.979-5.216,1.979
	c-4.279,0-7.195-3.076-7.195-7.089C185.074,22.087,188.017,19.306,191.868,19.306z M195.024,24.816
	c-0.08-2.247-1.498-3.45-3.183-3.45c-1.979,0-3.584,1.203-3.985,3.45H195.024z"/>
<path fill="#FFFFFF" d="M205.994,19.306c3.13,0,4.173,2.086,4.173,2.086h0.054c0,0-0.054-0.401-0.054-0.909v-3.397
	c0-0.401-0.214-0.588-0.589-0.588h-1.097v-2.22h2.568c1.203,0,1.712,0.508,1.712,1.712v14.364c0,0.401,0.214,0.589,0.588,0.589
	h1.097v2.22h-2.487c-1.177,0-1.658-0.535-1.658-1.444c0-0.401,0.026-0.695,0.026-0.695h-0.054c0,0-1.123,2.461-4.439,2.461
	c-3.665,0-5.966-2.889-5.966-7.089C199.868,22.087,202.41,19.306,205.994,19.306z M210.247,26.368c0-2.407-1.257-4.815-3.852-4.815
	c-2.113,0-3.879,1.766-3.879,4.842c0,2.942,1.578,4.842,3.825,4.842C208.348,31.236,210.247,29.818,210.247,26.368z"/>
<path fill="#FFFFFF" d="M228.896,16.578h-3.799c-0.374,0-0.588,0.187-0.588,0.588v1.204h-2.381v-2.488
	c0-1.204,0.401-1.605,1.604-1.605h13c1.204,0,1.605,0.401,1.605,1.605v2.488h-2.381v-1.204c0-0.401-0.214-0.588-0.589-0.588h-3.798
	v16.584h-2.675V16.578z"/>
<path fill="#FFFFFF" d="M244.973,19.306c4.039,0,7.303,2.969,7.303,7.062c0,4.119-3.264,7.115-7.303,7.115s-7.275-2.996-7.275-7.115
	C237.697,22.275,240.934,19.306,244.973,19.306z M244.973,31.236c2.568,0,4.654-2.033,4.654-4.868c0-2.809-2.086-4.815-4.654-4.815
	c-2.541,0-4.627,2.007-4.627,4.815C240.346,29.203,242.432,31.236,244.973,31.236z"/>
<path fill="#FFFFFF" d="M260.355,19.306c3.13,0,4.173,2.086,4.173,2.086h0.054c0,0-0.054-0.401-0.054-0.909v-3.397
	c0-0.401-0.214-0.588-0.589-0.588h-1.097v-2.22h2.568c1.203,0,1.712,0.508,1.712,1.712v14.364c0,0.401,0.214,0.589,0.588,0.589
	h1.097v2.22h-2.487c-1.177,0-1.658-0.535-1.658-1.444c0-0.401,0.026-0.695,0.026-0.695h-0.054c0,0-1.123,2.461-4.439,2.461
	c-3.665,0-5.966-2.889-5.966-7.089C254.229,22.087,256.771,19.306,260.355,19.306z M264.608,26.368c0-2.407-1.257-4.815-3.852-4.815
	c-2.113,0-3.879,1.766-3.879,4.842c0,2.942,1.578,4.842,3.825,4.842C262.709,31.236,264.608,29.818,264.608,26.368z"/>
<path fill="#FFFFFF" d="M278.574,24.736h0.588v-0.134c0-2.381-0.883-3.236-2.996-3.236c-0.642,0-2.22,0.16-2.22,1.043v0.775h-2.435
	v-1.337c0-2.22,3.371-2.542,4.682-2.542c4.387,0,5.563,2.3,5.563,5.296v5.751c0,0.401,0.214,0.589,0.589,0.589h1.097v2.22h-2.435
	c-1.203,0-1.685-0.589-1.685-1.552c0-0.454,0.053-0.802,0.053-0.802h-0.053c0,0-1.07,2.675-4.307,2.675
	c-2.327,0-4.602-1.418-4.602-4.119C270.415,25.003,276.3,24.736,278.574,24.736z M275.578,31.396c2.193,0,3.611-2.3,3.611-4.307
	v-0.454h-0.669c-1.953,0-5.483,0.106-5.483,2.595C273.037,30.327,273.866,31.396,275.578,31.396z"/>
<path fill="#FFFFFF" d="M286.868,36.532c1.044,0,1.873-0.749,2.381-1.952l0.615-1.472l-4.627-10.726
	c-0.188-0.429-0.429-0.535-0.856-0.535h-0.321v-2.22h1.525c1.097,0,1.498,0.294,1.926,1.364l3.076,7.624
	c0.268,0.695,0.481,1.631,0.481,1.631h0.054c0,0,0.187-0.936,0.454-1.631l2.809-7.624c0.401-1.07,0.883-1.364,1.979-1.364h1.552
	v2.22h-0.348c-0.429,0-0.669,0.106-0.856,0.535l-5.35,13.214c-0.829,2.086-2.461,3.183-4.36,3.183c-2.006,0-3.183-1.337-3.183-1.337
	l1.07-1.873C284.89,35.596,285.719,36.532,286.868,36.532z"/>
</svg>
