<?xml version="1.0" encoding="utf-8"?>
<!-- Generator: Adobe Illustrator 13.0.0, SVG Export Plug-In  -->
<!DOCTYPE svg [
	<!ENTITY ns_flows "http://ns.adobe.com/Flows/1.0/">
]>
<svg version="1.2" baseProfile="tiny"
	 xmlns="http://www.w3.org/2000/svg" xmlns:xlink="http://www.w3.org/1999/xlink" xmlns:a="http://ns.adobe.com/AdobeSVGViewerExtensions/3.0/"
	 x="0px" y="0px" width="908px" height="373px" viewBox="0 0 908 373" xml:space="preserve">
<defs>
</defs>
<g>
	<g>
		<path d="M268.239,231.768l11.466-58.939c0.63-3.239,1.445-7.383,1.81-9.209c0,0,0,0,0-1.548c0-2.213-1.328-3.319-3.982-3.319
			h-2.629c-3.3,0-5.508-2.655-4.908-5.9l2.24-12.097c0.601-3.245,3.792-5.9,7.092-5.9h13.888c3.3,0,8.622,0.645,11.826,1.433
			c0,0,7.67,1.886,7.67,9.188c0,1.991-0.442,4.425-0.885,6.859l-11.466,58.939c-0.63,3.239-1.444,7.085-1.81,8.545c0,0,0,0,0,0.664
			c0,2.213,1.106,3.54,3.983,3.54h2.85c3.3,0,5.48,2.649,4.845,5.888l-2.336,11.9c-0.635,3.238-3.855,5.888-7.155,5.888h-13.888
			c-3.3,0-8.583-0.788-11.739-1.751c0,0-7.315-2.231-7.315-9.091C267.796,235.308,267.796,233.981,268.239,231.768z M296.067,96.492
			c0.636-3.238,3.857-5.887,7.157-5.887h12.338c3.3,0,5.479,2.649,4.843,5.887l-2.774,14.113c-0.637,3.238-3.857,5.887-7.157,5.887
			h-12.339c-3.3,0-5.479-2.649-4.843-5.887L296.067,96.492z"/>
	</g>
	<g>
		<path d="M333.72,166.275c0.222-1.106,0.443-2.876,0.443-3.983c0-2.212-1.106-3.54-3.983-3.54h-2.629c-3.3,0-5.508-2.655-4.907-5.9
			l2.24-12.097c0.601-3.245,3.792-5.9,7.092-5.9h13.887c3.3,0,8.552,0.882,11.671,1.959c0,0,6.499,2.245,6.499,8.662
			c0,3.54-1.106,7.744-1.992,11.506l0,0c0.244,0,2.221-2.032,4.395-4.516c0,0,17.732-20.266,40.521-20.266
			c19.914,0,32.304,10.62,32.304,31.197c0,3.761-0.442,8.629-1.328,13.497l-6.611,34.377c-0.623,3.24-1.332,7.087-1.575,8.547
			c0,0,0,0,0,0.664c0,2.213,1.106,3.54,3.762,3.54h2.85c3.3,0,5.48,2.649,4.845,5.888l-2.336,11.9
			c-0.635,3.238-3.855,5.888-7.155,5.888h-13.887c-3.3,0-8.586-0.775-11.747-1.724c0,0-7.529-2.259-7.529-9.118
			c0-1.55,0.222-3.099,0.442-4.869l9.007-45.226c0.645-3.236,1.567-8.555,2.051-11.819c0,0,0.006-0.039,0.006-2.695
			c0-7.965-3.098-14.381-14.825-14.381c-19.692,0-35.623,19.913-39.164,38.279l-9.016,45.666c-0.639,3.238-3.862,5.887-7.162,5.887
			h-16.1c-3.3,0-5.481-2.649-4.848-5.889L333.72,166.275z"/>
	</g>
	<g>
		<path d="M469.328,122.687c0.222-1.548,0.664-3.318,0.664-4.867c0-2.213-1.328-3.319-3.982-3.319h-2.851
			c-3.3,0-5.485-2.65-4.855-5.89l2.356-12.117c0.63-3.239,3.845-5.89,7.145-5.89h13.888c3.3,0,8.619,0.655,11.821,1.456
			c0,0,7.454,1.863,7.454,9.165c0,1.77-0.442,4.205-0.885,6.638l-11.701,60.929c-0.622,3.241,0.71,5.892,2.962,5.892
			c2.251,0,6.752-0.469,10.002-1.043c0,0,1.613-0.285,4.048-3.162l26.219-31.039c2.13-2.521,6.572-4.583,9.872-4.583h20.747
			c3.3,0,4.238,2.046,2.086,4.547l-29.123,33.83c-2.152,2.501-5.984,6.28-8.516,8.398c0,0-2.175,1.775-3.616,2.998
			c-1.443,1.223-2.623,2.324-2.623,2.445c0,0.121,0.524,1.276,1.166,2.567c0,0,0,0,3.474,6.703l7.619,17.951
			c1.289,3.038,4.037,7.415,6.106,9.728c0,0,0,0,5.089,0h1.522c3.3,0,5.479,2.649,4.845,5.888l-2.337,11.9
			c-0.635,3.238-3.855,5.888-7.155,5.888h-7.249c-3.3,0-8.673-0.382-11.939-0.849c0,0-6.451-0.922-9.328-8.889l-10.563-29.097
			c-1.126-3.102-3.957-7.549-6.29-9.883c0,0-0.625-0.625-4.607-0.625h-2.187c-3.3,0-6.522,2.648-7.162,5.887l-7.413,37.568
			c-0.639,3.238-3.862,5.887-7.162,5.887h-15.879c-3.3,0-5.484-2.65-4.854-5.89L469.328,122.687z"/>
	</g>
	<g>
		<path d="M559.147,231.989l20.307-103.414c0.636-3.238,1.455-7.381,1.819-9.206c0,0,0,0,0-1.549c0-2.213-1.327-3.319-3.982-3.319
			h-2.851c-3.3,0-5.484-2.65-4.854-5.89l2.355-12.117c0.63-3.239,3.846-5.89,7.146-5.89h13.888c3.3,0,8.619,0.655,11.821,1.455
			c0,0,7.454,1.864,7.454,9.165c0,1.77-0.442,4.205-0.885,6.638l-20.097,103.412c-0.63,3.239-1.344,7.085-1.587,8.545
			c0,0,0,0,0,0.664c0,2.213,1.106,3.54,3.762,3.54h3.071c3.3,0,5.48,2.649,4.845,5.888l-2.336,11.9
			c-0.636,3.238-3.855,5.888-7.155,5.888H577.98c-3.3,0-8.586-0.775-11.747-1.725c0,0-7.527-2.258-7.527-9.117
			C558.706,235.308,558.926,233.759,559.147,231.989z"/>
	</g>
	<g>
		<path d="M671.976,132.202c30.092,0,44.916,17.701,44.916,42.703c0,9.735-2.145,15.606-2.145,15.606
			c-1.132,3.1-4.759,5.636-8.059,5.636h-65.44c-3.3,0-6.199,1.094-6.443,2.432c0,0,0,0,0,2.435
			c0,15.046,10.399,25.666,28.101,25.666c18.364,0,30.15-8.8,30.15-8.8c2.645-1.975,5.701-1.042,6.793,2.072l3.553,10.138
			c1.092,3.114-0.166,7.294-2.795,9.288c0,0-14.47,10.977-39.471,10.977c-35.182,0-54.651-21.02-54.651-48.678
			C606.485,163.62,634.364,132.202,671.976,132.202z M683.013,176.675c3.3,0,6.1-0.896,6.222-1.991c0,0,0,0,0-2.212
			c0-11.948-7.302-18.586-17.921-18.586c-14.382,0-27.636,17.962-27.636,17.962c-1.959,2.655-0.862,4.828,2.438,4.828H683.013z"/>
	</g>
	<g>
		<path d="M720.314,217.601c1.933-2.674,5.205-2.757,7.271-0.184c0,0,8.855,11.032,29.654,11.032
			c10.398,0,17.479-4.647,17.479-11.948c0-7.966-8.851-11.284-17.259-14.381c-15.046-5.754-32.746-13.497-32.746-34.738
			c0-24.118,23.012-35.181,46.243-35.181c19.693,0,43.81,7.744,39.827,26.551l-0.489,2.724c-0.583,3.248-3.76,5.906-7.06,5.906
			h-12.339c-3.3,0-5.851-0.797-5.668-1.771c0.184-0.974-0.853-4.196-2.303-7.16c0,0-2.232-4.566-12.633-4.566
			c-10.62,0-17.258,4.868-17.258,11.727c0,8.85,10.843,12.169,20.135,15.931c14.16,5.531,30.534,12.391,30.534,32.304
			c0,22.126-20.356,36.508-46.907,36.508c-31.197,0-42.549-14.522-42.549-14.522c-2.032-2.601-2.113-6.916-0.18-9.59
			L720.314,217.601z"/>
	</g>
	<g>
		<path d="M817.389,217.601c1.933-2.674,5.205-2.757,7.271-0.184c0,0,8.855,11.032,29.654,11.032
			c10.398,0,17.479-4.647,17.479-11.948c0-7.966-8.851-11.284-17.259-14.381c-15.045-5.754-32.746-13.497-32.746-34.738
			c0-24.118,23.012-35.181,46.244-35.181c19.691,0,43.809,7.744,39.826,26.551l-0.489,2.724c-0.583,3.248-3.76,5.906-7.06,5.906
			h-12.339c-3.3,0-5.851-0.797-5.668-1.771s-0.854-4.196-2.303-7.161c0,0-2.232-4.566-12.632-4.566
			c-10.621,0-17.259,4.868-17.259,11.727c0,8.85,10.842,12.169,20.135,15.931c14.16,5.531,30.534,12.391,30.534,32.304
			c0,22.126-20.356,36.508-46.906,36.508c-31.197,0-42.549-14.522-42.549-14.522c-2.032-2.601-2.113-6.916-0.181-9.59
			L817.389,217.601z"/>
	</g>
</g>
<g>
	<path fill="none" d="M62.609,208.022l-2.606,15.334c-4.224,24.829-27.767,41.523-52.59,37.305l-0.48-0.082"/>
	<path d="M55.859,206.161c-1.764,10.38-2.65,21.101-8.229,30.276c-7.874,12.947-24,19.925-38.837,17.392
		c-8.828-1.507-12.608,11.982-3.722,13.5c18.897,3.227,38.08-3.182,50.449-18.063c9.587-11.534,11.426-25.186,13.839-39.382
		C70.86,201.055,57.37,197.274,55.859,206.161L55.859,206.161z"/>
</g>
<g>
	<path fill="none" d="M219.511,237.981l-3.104,15.235c-5.025,24.673,9.872,48.676,33.274,53.628l0.452,0.094"/>
	<path d="M212.761,236.12c-2.811,13.796-6.043,26.943-2.417,41.007c4.638,17.991,19.701,32.778,37.928,36.562
		c8.81,1.828,12.559-11.666,3.722-13.5c-15.011-3.116-25.443-14.699-28.786-29.409c-2.331-10.257,1.01-20.904,3.054-30.937
		C228.057,231.03,214.563,227.277,212.761,236.12L212.761,236.12z"/>
</g>
<g>
	<path fill="none" d="M224.778,329.182l-0.452-0.096c-23.402-4.952-38.301-28.957-33.273-53.629l7.529-36.959l0.965-4.743"/>
	<path d="M226.639,322.432c-21.805-4.615-32.695-26.174-28.433-47.094c2.697-13.24,5.396-26.48,8.091-39.722
		c1.793-8.813-11.7-12.565-13.5-3.723c-2.809,13.803-5.623,27.604-8.434,41.406c-5.583,27.407,10.241,56.639,38.554,62.632
		C231.724,337.796,235.47,324.301,226.639,322.432L226.639,322.432z"/>
</g>
<g>
	<path fill="none" d="M198.044,351.127l-0.45-0.095c-23.404-4.953-38.302-28.954-33.275-53.629l13.886-68.164"/>
	<path d="M199.905,344.377c-16.061-3.38-26.624-16.229-29.273-32.085c-1.376-8.237,1.236-16.946,2.873-24.984
		c3.817-18.735,7.634-37.472,11.451-56.207c1.795-8.813-11.698-12.565-13.5-3.723c-4.06,19.929-8.12,39.857-12.179,59.785
		c-2.342,11.495-4.035,22.46-1.021,34.151c4.647,18.026,19.701,32.728,37.928,36.562
		C204.99,359.731,208.737,346.236,199.905,344.377L199.905,344.377z"/>
</g>
<g>
	<path fill="none" d="M170.717,366.334l-0.453-0.095c-23.401-4.952-38.3-28.95-33.272-53.628l17.929-88.013"/>
	<path d="M172.578,359.584c-19.431-4.062-30.708-22.078-29.397-41.298c0.565-8.297,3.208-16.805,4.86-24.913
		c4.543-22.305,9.087-44.609,13.631-66.913c1.795-8.813-11.698-12.565-13.5-3.723c-4.822,23.673-9.645,47.346-14.467,71.019
		c-2.187,10.736-5.349,21.862-4.483,32.887c1.735,22.085,17.667,41.849,39.635,46.441
		C177.665,374.926,181.413,361.431,172.578,359.584L172.578,359.584z"/>
</g>
<g>
	<path fill="none" d="M178.906,6.903l3.236,0.635c0,0,52.308,25.861,56.886,82.6c0,0,4.666,19.43-22.974,57.355
		c0,0,6.472,46.197,7.192,49.272c1.22,5.205-2.46,31.534-3.734,41.216"/>
	<path d="M177.045,13.653c1.016,0.199,4.502,1.403,1.61-0.048c0.224,0.112,0.446,0.23,0.667,0.348
		c1.302,0.691,2.575,1.438,3.835,2.202c4.817,2.915,9.139,6.069,13.142,9.403c13.887,11.567,25.183,26.329,31.205,43.469
		c1.803,5.132,3.039,10.445,3.923,15.807c0.39,2.36,0.315,4.85,0.853,7.177c0.144,0.622,0.251,1.864-0.104-0.938
		c0.598,4.728-0.043,7.329-0.927,11.257c-2.139,9.514-6.502,18.333-11.381,26.709c-1.725,2.96-3.59,5.837-5.489,8.688
		c-1.935,2.905-5.326,6.063-5.326,9.767c0,1.748,0.516,3.755,0.759,5.484c1.968,13.99,3.894,27.99,6.058,41.952
		c0.143,0.923,0.291,1.845,0.448,2.765c0.336,1.972,0.002-0.868,0.122,0.584c0.307,3.716-0.178,7.566-0.504,11.264
		c-0.839,9.512-2.174,18.977-3.425,28.44c-0.501,3.793,3.563,7,7,7c4.194,0,6.5-3.218,7-7c1.352-10.229,2.771-20.458,3.622-30.744
		c0.536-6.478-0.2-12.288-1.162-18.638c-2.168-14.305-4.16-28.639-6.167-42.967c-0.235,1.798-0.471,3.596-0.706,5.394
		c11.489-15.917,22.324-34.284,24.101-54.265c0.146-1.648,0.17-3.312,0.05-4.963c-0.066-0.906-0.424-3.96-0.35-3.121
		c-1.028-11.645-4.164-22.719-8.912-33.369c-7.306-16.385-19.483-30.664-33.428-41.804c-6.652-5.314-14.227-11.671-22.792-13.352
		C171.949-1.577,168.19,11.916,177.045,13.653L177.045,13.653z"/>
</g>
<g>
	<path fill="none" d="M23.577,290.815l0.457,0.075c23.571,4.057,46.059-12.779,50.234-37.614l6.254-37.204l0.804-4.773"/>
	<path d="M21.716,297.565c27.997,4.606,54.59-14.397,59.325-42.562c2.345-13.947,4.687-27.896,7.035-41.843
		c1.486-8.829-12.003-12.61-13.5-3.723c-2.216,13.162-4.426,26.325-6.639,39.488c-1.583,9.414-4.771,17.747-11.502,24.727
		c-7.909,8.2-19.734,12.267-30.997,10.413C16.609,282.613,12.824,296.102,21.716,297.565L21.716,297.565z"/>
</g>
<g>
	<path fill="none" d="M40.597,321.149l0.454,0.078c23.572,4.055,46.061-12.777,50.236-37.616l11.535-68.616"/>
	<path d="M38.736,327.899c18.247,3.139,36.444-3.538,48.136-17.994c7.714-9.539,10.5-20.479,12.472-32.208
		c3.41-20.28,6.819-40.561,10.228-60.841c1.484-8.829-12.006-12.611-13.5-3.723c-3.127,18.603-6.254,37.204-9.381,55.806
		c-1.374,8.17-2.155,16.95-5.766,24.489c-6.833,14.263-22.561,23.707-38.467,20.971C33.63,312.88,29.851,326.371,38.736,327.899
		L38.736,327.899z"/>
</g>
<g>
	<path fill="none" d="M60.656,345.057l0.456,0.08c23.57,4.053,46.058-12.774,50.233-37.616l14.894-88.594"/>
	<path d="M58.795,351.807c21.848,3.84,42.964-6.87,53.649-26.186c5.498-9.94,6.542-21.544,8.394-32.557
		c4.05-24.092,8.1-48.185,12.15-72.276c1.484-8.829-12.006-12.61-13.5-3.723c-3.726,22.165-7.452,44.33-11.179,66.495
		c-1.395,8.298-2.515,16.698-4.277,24.929c-3.982,18.598-22.153,33.221-41.516,29.817C53.69,336.755,49.914,350.246,58.795,351.807
		L58.795,351.807z"/>
</g>
<g>
	<path fill="none" d="M181.431,7.594l-3.241-0.605c0,0-57.449,4.819-82.079,55.958c0,0-11.319,16.362,0.807,61.914
		c0,0-22.607,40.62-24.383,43.218c-3.003,4.396-7.638,30.457-9.926,39.943"/>
	<path d="M183.292,0.844c-8.755-1.635-17.63,0.939-26.047,3.495c-17.27,5.244-33.354,14.223-46.489,26.633
		c-10.101,9.542-19.526,22.245-23.776,35.701c-6.027,19.084-1.71,41.305,3.189,60.048c0.235-1.798,0.471-3.596,0.706-5.394
		c-6.893,12.384-13.787,24.768-20.799,37.084c-3.114,5.468-5.696,10.403-7.325,16.58c-2.716,10.293-4.436,20.817-6.89,31.169
		c-2.082,8.779,11.417,12.505,13.5,3.723c2.194-9.254,3.87-18.622,6.069-27.875c0.498-2.094,1.04-4.176,1.627-6.247
		c0.239-0.843,0.507-1.678,0.781-2.51c0.046-0.14,0.989-2.367,0.28-0.822c0.721-1.572,1.812-3.056,2.674-4.553
		c7.182-12.467,14.14-25.066,21.143-37.634c1.272-2.284,2.464-4.449,1.734-7.241c-1.873-7.167-3.514-14.424-4.455-21.779
		c-1.088-8.505-1.382-18.263,0.068-25.988c0.425-2.265,1.032-4.497,1.814-6.664c0.671-1.859-0.637,1.271,0.258-0.625
		c0.196-0.415,0.412-0.821,0.646-1.216c4.688-7.928,8.806-15.471,15.129-22.297c11.412-12.318,26.381-20.917,42.255-26.093
		c5.082-1.657,10.291-2.949,15.554-3.878c0.807-0.143,1.616-0.269,2.426-0.389c0.794-0.118-1.915,0.229,0.036,0.001
		c0.246-0.029,0.493-0.055,0.739-0.078c-3.08,0.288,0.169,0.115,1.431,0.351C188.393,15.992,192.159,2.5,183.292,0.844
		L183.292,0.844z"/>
</g>
<path fill="none" stroke="#000000" stroke-width="14" d="M208.047,110.711c1.485-15.09-9.548-28.52-24.639-30.003
	c-15.091-1.482-28.529,9.543-30.014,24.629c-1.485,15.101,9.547,28.533,24.637,30.016
	C193.123,136.835,206.562,125.809,208.047,110.711"/>
<path fill="none" stroke="#000000" stroke-width="12" d="M149.681,109.476c0.938-9.545-6.039-18.039-15.584-18.977
	c-9.545-0.938-18.044,6.035-18.984,15.577c-0.939,9.551,6.038,18.047,15.583,18.984C140.241,126,148.741,119.025,149.681,109.476"/>
</svg>
